<?xml version="1.0" standalone="no"?>
<!DOCTYPE svg PUBLIC "-//W3C//DTD SVG 20010904//EN"
 "http://www.w3.org/TR/2001/REC-SVG-20010904/DTD/svg10.dtd">
<svg version="1.0" xmlns="http://www.w3.org/2000/svg"
 width="512.000000pt" height="512.000000pt" viewBox="0 0 512.000000 512.000000"
 preserveAspectRatio="xMidYMid meet">

<g transform="translate(0.000000,512.000000) scale(0.100000,-0.100000)"
fill="#000000" stroke="none">
<path d="M2515 5074 c-267 -38 -443 -112 -850 -354 -121 -72 -305 -173 -410
-224 -395 -193 -628 -359 -804 -572 -127 -153 -205 -302 -252 -481 -30 -113
-37 -352 -15 -498 15 -96 16 -172 10 -600 -7 -539 -2 -625 53 -842 32 -131 69
-189 206 -330 245 -252 713 -560 1242 -819 417 -203 719 -310 870 -307 235 4
501 113 970 398 143 87 364 211 490 277 274 142 450 257 579 379 256 243 341
465 314 823 -8 112 -8 212 1 405 27 575 30 659 21 815 -18 330 -82 558 -213
759 -63 97 -118 143 -373 310 -274 179 -494 306 -1044 597 -190 101 -354 189
-366 197 -60 39 -331 81 -429 67z m171 -105 c196 -37 362 -116 754 -353 80
-49 222 -130 315 -181 407 -221 532 -295 650 -384 221 -166 351 -361 383 -576
11 -73 27 -920 24 -1255 -3 -235 -16 -424 -43 -585 -30 -183 -40 -211 -123
-321 -182 -245 -414 -412 -941 -676 -332 -167 -476 -245 -598 -324 -197 -129
-292 -163 -473 -171 -100 -5 -137 -2 -222 16 -164 35 -370 125 -587 256 -38
23 -144 87 -235 142 -195 118 -230 137 -420 235 -80 42 -161 84 -180 95 -340
193 -541 395 -624 628 -42 118 -46 166 -41 508 2 206 -1 405 -10 552 -36 604
-6 889 125 1172 43 93 91 167 129 201 43 38 280 205 381 269 147 93 327 195
675 383 176 95 379 206 450 247 152 86 212 110 315 128 109 19 176 18 296 -6z"/>
<path d="M2564 4617 c-51 -30 -142 -43 -151 -22 -8 24 -40 18 -106 -19 -34
-19 -111 -57 -172 -84 -144 -63 -281 -142 -675 -387 -179 -111 -403 -248 -498
-304 -162 -96 -174 -105 -200 -153 -15 -27 -38 -66 -51 -86 -13 -20 -29 -60
-37 -89 -8 -29 -21 -79 -29 -110 -47 -176 -57 -449 -30 -858 17 -251 20 -498
9 -658 -7 -118 7 -192 57 -295 52 -106 131 -181 298 -279 80 -47 245 -145 366
-218 121 -72 263 -156 315 -187 220 -129 474 -256 571 -284 26 -8 50 -21 53
-30 4 -10 17 -15 38 -14 62 4 76 0 81 -20 7 -29 35 -36 67 -16 39 23 92 21
108 -4 17 -27 35 -25 96 9 28 16 101 47 161 69 141 50 340 150 585 294 789
462 798 468 892 560 48 48 88 94 88 103 0 8 12 39 26 67 34 66 69 185 85 284
14 92 14 433 0 574 -6 52 -16 196 -22 321 -10 184 -10 251 1 357 18 182 11
278 -30 376 -58 139 -140 223 -320 332 -69 41 -160 97 -204 125 -428 271 -860
502 -1038 555 -27 9 -52 23 -59 35 -9 18 -17 20 -57 15 -74 -9 -125 4 -132 34
-8 33 -36 36 -86 7z m-105 -60 c-10 -9 -123 -70 -119 -64 19 22 88 66 104 66
11 1 17 -1 15 -2z m230 -22 c2 -3 2 -7 0 -10 -3 -2 -174 -102 -380 -221 -206
-119 -390 -225 -409 -237 -19 -11 -29 -14 -22 -6 7 8 174 121 370 251 344 229
358 238 397 232 21 -3 41 -7 44 -9z m134 -52 c3 -5 -69 -51 -160 -103 -353
-203 -369 -207 -69 -16 192 121 219 135 229 119z m107 -58 c0 -4 -114 -72
-235 -140 -84 -48 -40 -14 88 67 110 69 147 88 147 73z m103 -65 c-4 -4 -96
-58 -203 -120 -230 -132 -217 -125 -207 -115 22 25 394 252 405 247 7 -2 10
-8 5 -12z m127 -66 c22 -9 40 -19 40 -23 0 -3 -83 -53 -184 -111 -132 -75
-182 -108 -175 -116 7 -9 -1 -14 -30 -19 -48 -8 -146 -54 -186 -87 -41 -33
-61 -40 -76 -22 -6 8 -10 16 -8 18 7 7 572 376 575 376 2 0 22 -7 44 -16z
m203 -100 c18 -12 18 -13 -5 -27 -82 -52 -290 -167 -300 -167 -6 0 -27 5 -45
12 l-33 12 156 102 c168 110 165 109 227 68z m139 -70 l30 -16 -178 -103
c-135 -78 -182 -101 -192 -93 -7 6 -11 15 -10 20 3 7 304 205 316 207 2 1 17
-6 34 -15z m143 -76 c14 -6 25 -14 25 -17 -1 -10 -340 -201 -358 -201 -55 1
-34 21 125 123 93 59 171 107 175 107 4 0 19 -5 33 -12z m-1411 -7 c3 -5 -14
-14 -39 -20 -60 -15 -65 -14 -30 9 32 21 60 26 69 11z m1559 -80 l29 -19 -94
-54 c-51 -31 -131 -77 -176 -103 l-84 -48 -20 20 -20 20 159 101 c87 56 163
101 168 102 6 0 23 -9 38 -19z m-1563 5 c0 -4 -140 -85 -164 -95 -5 -2 0 10
12 27 24 33 94 72 130 72 12 0 22 -2 22 -4z m118 -28 c12 -6 22 -14 22 -18 0
-3 -47 -41 -105 -84 -58 -43 -105 -80 -105 -83 0 -3 19 6 43 20 173 100 208
119 210 116 2 -2 13 -17 25 -33 12 -16 22 -32 22 -37 0 -4 -27 -27 -60 -50
-87 -61 -74 -63 22 -2 50 31 56 29 63 -14 3 -21 11 -46 16 -56 6 -11 9 -20 7
-21 -2 -1 -41 -24 -87 -51 -46 -27 -148 -96 -225 -153 -133 -98 -166 -124
-140 -109 6 3 222 128 479 277 257 148 471 270 476 270 9 0 49 -54 49 -67 0
-5 -115 -85 -255 -177 -140 -92 -255 -170 -255 -173 0 -2 15 4 33 15 17 11
133 78 257 149 l225 130 85 -6 c79 -6 83 -7 60 -20 -14 -7 -161 -103 -326
-212 -187 -124 -311 -199 -326 -199 -48 0 -59 -27 -56 -136 2 -55 -1 -227 -7
-384 -5 -157 -10 -405 -9 -551 l1 -267 -420 -242 -419 -242 -29 28 c-16 15
-29 33 -29 38 1 6 91 69 202 139 148 95 203 125 213 117 21 -18 88 10 99 42
11 32 -13 94 -50 129 l-24 22 173 115 c256 170 253 172 -21 13 l-172 -100 -70
6 c-55 5 -74 2 -95 -11 -35 -23 -31 -43 12 -53 l37 -8 -187 -108 c-102 -59
-189 -107 -192 -107 -3 0 -5 11 -5 24 0 20 -11 30 -52 51 -53 27 -112 75 -129
107 -8 15 15 34 163 131 95 63 268 176 383 251 116 76 215 143 220 149 13 14
40 29 -402 -227 -216 -124 -396 -226 -401 -226 -6 0 -13 16 -16 36 -4 19 -9
41 -12 49 -4 8 28 33 90 69 52 31 176 110 275 176 100 66 183 120 185 120 3 0
6 -10 8 -22 8 -57 106 -18 126 49 13 45 47 93 65 93 7 0 29 5 50 11 37 10 52
39 20 39 -15 0 -14 2 3 15 17 14 16 14 -16 1 -19 -8 -64 -25 -99 -37 -44 -16
-76 -35 -105 -65 -27 -28 -136 -97 -320 -203 -277 -160 -278 -160 -272 -129
18 91 32 104 271 257 124 79 225 146 225 148 0 3 -15 -4 -32 -15 -221 -133
-352 -202 -360 -190 -18 26 -47 98 -53 132 l-7 34 284 187 c155 103 288 192
293 197 11 12 5 8 -324 -181 -134 -78 -247 -141 -251 -141 -8 0 5 94 15 110 4
6 102 74 218 152 299 198 298 200 -13 20 -85 -50 -157 -88 -159 -86 -3 2 6 15
19 29 18 19 22 32 17 58 -3 19 -2 38 1 43 4 5 92 73 196 149 192 142 229 170
211 162 -5 -2 -96 -55 -202 -116 -105 -61 -195 -111 -198 -111 -10 0 4 70 21
101 7 15 31 42 51 59 21 18 31 29 23 24 -13 -7 -13 -6 0 11 21 26 105 78 170
105 30 13 59 26 63 30 4 4 0 27 -9 51 -25 62 -25 173 1 224 26 52 76 85 128
85 l40 0 -19 -21 -19 -21 35 21 c19 11 45 21 58 21 13 0 37 14 54 30 17 17 80
60 141 95 117 67 118 67 185 33z m481 15 c-15 -17 -12 -16 33 6 24 12 33 12
73 -3 25 -10 45 -21 45 -25 0 -6 -320 -196 -353 -210 -14 -5 4 90 23 129 33
64 109 119 169 120 21 0 22 -2 10 -17z m-819 -17 c0 -2 -8 -10 -17 -17 -16
-13 -17 -12 -4 4 13 16 21 21 21 13z m1900 -53 c-1 -9 -372 -223 -386 -223
-13 0 359 229 374 229 6 1 12 -2 12 -6z m-2485 -22 c-14 -12 -644 -431 -649
-431 -12 0 21 74 39 86 33 22 610 354 615 354 2 0 0 -4 -5 -9z m479 -19 c3 -5
-16 -14 -42 -20 -26 -6 -56 -14 -67 -17 -11 -4 -2 4 20 19 40 25 79 33 89 18z
m2086 -19 c0 -5 -12 -15 -28 -23 -115 -65 -146 -82 -137 -73 9 10 156 103 162
103 2 0 3 -3 3 -7z m109 -96 c-21 -19 -532 -307 -543 -307 -8 0 -17 3 -20 8
-2 4 116 82 262 173 262 163 267 166 286 148 11 -10 18 -20 15 -22z m-2409 19
c0 -2 -8 -10 -17 -17 -16 -13 -17 -12 -4 4 13 16 21 21 21 13z m1637 -18 c28
-30 51 -78 55 -112 3 -26 -12 -37 -250 -191 -140 -90 -257 -167 -260 -171 -4
-4 0 -3 8 2 8 4 125 72 260 150 238 138 245 141 248 116 2 -14 1 -40 -2 -58
-6 -29 -26 -45 -195 -157 -104 -69 -204 -133 -223 -143 -18 -9 -51 -31 -73
-49 -22 -18 -88 -64 -146 -103 l-106 -71 -7 123 c-4 68 -14 152 -22 187 -8 35
-16 72 -17 81 -1 13 87 69 343 217 190 110 350 200 356 200 6 1 20 -9 31 -21z
m863 -77 c0 -8 -496 -295 -519 -299 -31 -7 5 17 248 167 213 131 271 159 271
132z m60 -79 c0 -4 -89 -59 -197 -122 -109 -63 -209 -121 -223 -129 -14 -8
-20 -10 -15 -4 12 14 417 262 428 263 4 0 7 -4 7 -8z m-3145 -61 c-6 -6 -88
-59 -182 -120 -125 -79 -173 -105 -173 -93 1 11 60 51 178 119 178 103 194
111 177 94z m3203 -42 c1 -9 -83 -63 -235 -151 -259 -149 -257 -148 -260 -133
-3 12 467 306 482 301 6 -1 11 -9 13 -17z m-2690 -39 c10 -16 10 -20 0 -20
-26 0 -124 -52 -178 -94 -63 -48 -648 -432 -675 -442 -16 -7 -17 -3 -12 35 3
24 7 44 9 45 1 2 170 99 373 216 204 117 390 228 415 246 54 39 52 39 68 14z
m1852 -76 c22 -9 40 -20 40 -24 0 -4 -180 -125 -400 -270 -220 -144 -400 -265
-400 -267 0 -3 15 4 33 15 18 10 172 99 343 197 170 98 313 185 317 192 5 7
12 11 17 8 4 -3 11 2 14 11 4 9 13 14 22 10 8 -3 12 -2 9 4 -7 12 32 33 47 24
7 -4 8 -3 4 4 -4 6 6 18 23 26 29 15 30 15 55 -15 38 -45 71 -106 91 -168 15
-45 15 -55 4 -65 -8 -7 -132 -90 -275 -185 -189 -124 -272 -174 -299 -177 -46
-6 -105 -30 -105 -43 0 -5 10 -11 23 -13 17 -2 -3 -19 -90 -77 -62 -40 -113
-75 -113 -78 0 -3 10 1 23 9 67 43 225 128 239 128 23 0 65 -54 80 -101 14
-49 27 -55 78 -40 70 21 65 88 -11 162 l-48 47 253 146 c139 80 258 146 265
146 7 0 11 -18 11 -47 l0 -48 -222 -142 c-122 -79 -218 -143 -215 -143 4 0
108 59 232 130 123 72 227 130 229 130 3 0 15 -18 26 -40 l20 -40 -407 -271
c-225 -149 -412 -276 -418 -282 -12 -12 -61 -40 419 237 224 130 413 236 419
236 16 0 1 -112 -22 -166 -29 -65 -41 -76 -148 -146 -51 -33 -93 -62 -93 -65
0 -5 86 43 154 85 l40 25 33 -37 c18 -19 33 -40 33 -45 0 -5 -48 -37 -106 -71
-109 -63 -431 -273 -449 -293 -5 -5 6 -1 25 11 221 130 543 311 550 307 11 -7
33 -92 27 -107 -2 -7 -77 -64 -166 -127 -88 -62 -161 -114 -161 -117 0 -2 73
39 163 91 154 89 162 93 165 70 2 -13 -2 -42 -8 -64 -10 -37 -24 -50 -168
-152 -86 -62 -161 -117 -167 -122 -11 -11 64 31 79 45 6 4 14 8 18 8 9 0 9
-75 0 -107 -4 -12 -54 -59 -112 -103 -143 -111 -143 -112 3 -26 77 45 77 46
63 17 -24 -46 -112 -118 -172 -140 -30 -12 -59 -21 -64 -21 -5 0 -25 -33 -43
-73 -58 -125 -147 -200 -253 -213 l-49 -6 35 29 c79 64 81 71 7 28 -43 -25
-86 -45 -97 -45 -29 0 -101 31 -95 40 3 5 65 55 138 111 72 56 137 106 142
112 14 14 -12 -1 -179 -97 -82 -48 -155 -86 -164 -84 -8 2 -25 17 -38 33 l-23
31 194 138 c107 75 195 139 195 141 0 3 -338 -189 -387 -221 -12 -8 -25 -14
-28 -14 -9 0 -34 70 -45 127 -5 31 -14 61 -18 65 -4 4 -30 2 -57 -5 -53 -13
-56 -18 -69 -119 -17 -135 -141 -245 -287 -256 -37 -2 -75 -2 -84 2 -12 4 36
41 167 127 258 170 257 170 -29 5 l-203 -118 -45 23 c-25 12 -45 25 -45 28 0
3 129 91 285 195 157 104 285 191 285 194 0 2 -15 -5 -32 -15 -18 -11 -156
-91 -307 -178 l-274 -158 -24 29 c-12 16 -23 34 -23 40 0 7 69 56 153 109 83
54 157 102 162 108 13 13 20 17 -169 -92 -87 -51 -161 -89 -165 -86 -3 4 -11
21 -17 38 -9 26 -20 36 -63 51 -28 10 -50 22 -49 27 3 8 763 519 773 519 3 0
5 -10 5 -21 0 -37 22 -98 42 -116 18 -16 21 -16 46 -1 l27 17 1 138 c1 76 7
312 14 525 l13 388 98 55 c53 30 99 55 102 55 2 0 2 -11 0 -24 -3 -13 0 -33 6
-45 25 -47 103 -9 121 58 15 56 42 84 93 99 57 17 79 39 53 54 -14 8 9 25 136
99 84 49 159 89 165 89 7 0 31 -7 53 -16z m880 9 c0 -9 -492 -293 -506 -293
-4 0 102 67 237 150 228 140 269 162 269 143z m-3405 -72 c-21 -20 -189 -120
-193 -116 -7 7 -7 7 98 69 96 55 112 64 95 47z m3425 -30 c0 -4 -57 -41 -127
-82 -189 -108 -199 -113 -188 -102 9 10 306 193 312 193 2 0 3 -4 3 -9z
m-3290 -5 c0 -9 -322 -207 -328 -202 -9 10 6 20 168 115 164 95 160 93 160 87z
m211 -213 c-6 -23 -58 -61 -272 -201 l-264 -172 -3 41 c-2 23 1 46 6 51 13 13
525 308 534 308 3 0 3 -12 -1 -27z m3097 -119 c-2 -2 -105 -62 -229 -133 -132
-77 -226 -125 -228 -119 -2 7 0 14 5 15 5 2 108 66 229 142 188 118 220 135
223 119 2 -11 2 -21 0 -24z m-3149 -95 c-8 -11 -122 -90 -254 -174 -229 -146
-240 -152 -243 -127 -2 13 3 31 11 39 16 17 478 282 491 283 5 0 2 -9 -5 -21z
m3151 -7 c0 -5 -10 -14 -22 -20 -13 -6 -48 -25 -78 -43 -73 -42 -56 -26 28 28
75 48 72 46 72 35z m0 -131 c0 -28 -13 -37 -229 -161 -127 -73 -233 -132 -238
-131 -29 4 18 39 227 171 129 82 236 150 238 150 1 0 2 -13 2 -29z m-3212 -75
c-28 -21 -438 -276 -442 -276 -11 0 -6 49 7 61 6 6 106 66 222 133 178 103
211 119 213 103 2 -10 2 -20 0 -21z m3195 -126 c-25 -24 -395 -230 -403 -225
-6 4 -10 12 -10 18 0 7 94 71 208 143 l207 131 3 -30 c2 -16 0 -33 -5 -37z
m-3146 0 c3 -16 -493 -337 -504 -327 -3 3 -1 22 3 42 9 34 20 42 239 170 127
73 237 133 245 132 8 -1 16 -9 17 -17z m3151 -122 c-2 -18 -46 -48 -193 -135
-104 -61 -193 -112 -197 -112 -5 -1 -8 5 -8 12 1 11 373 254 393 256 5 1 7 -9
5 -21z m-3308 -112 c0 -3 -295 -187 -344 -214 -5 -3 -7 1 -4 8 2 7 80 57 173
111 176 102 175 102 175 95z m3288 -101 c-7 -7 -137 -83 -288 -170 -151 -87
-290 -167 -307 -178 -30 -17 -33 -17 -33 -3 0 10 14 25 31 34 18 9 60 38 93
63 34 26 163 112 286 193 l225 146 3 -37 c2 -21 -2 -41 -10 -48z m-2813 -3
c-28 -25 -229 -142 -238 -139 -6 2 45 36 113 75 119 69 146 82 125 64z m-407
-99 c-2 -10 -83 -67 -193 -135 -155 -97 -191 -115 -198 -103 -5 9 -7 21 -5 27
5 13 367 226 386 227 8 1 12 -7 10 -16z m-285 -41 c-30 -22 -131 -78 -118 -64
11 11 127 81 135 81 3 0 -5 -7 -17 -17z m1107 -74 c11 -24 20 -50 20 -58 0
-19 -408 -256 -419 -244 -11 13 -34 74 -30 78 12 10 401 266 405 266 3 0 14
-19 24 -42z m2407 -1 c-2 -7 -78 -55 -168 -107 -233 -133 -235 -134 -224 -122
16 17 389 251 393 247 3 -2 2 -10 -1 -18z m-3167 6 c-1 -9 -386 -246 -408
-251 -8 -2 -12 3 -10 13 2 9 88 66 198 130 184 107 221 125 220 108z m40 -97
c0 -9 -401 -248 -407 -242 -9 8 -18 3 202 130 208 120 205 119 205 112z m3129
-41 c-10 -9 -322 -185 -325 -183 -1 2 70 50 159 106 89 56 163 98 165 92 2 -6
2 -13 1 -15z m-3011 -19 c-5 -24 -440 -290 -456 -280 -7 5 -13 13 -13 18 0 8
447 273 464 275 5 1 7 -6 5 -13z m187 -26 c-3 -5 -12 -10 -18 -10 -7 0 -6 4 3
10 19 12 23 12 15 0z m2788 -88 c-29 -21 -131 -78 -120 -66 14 15 121 83 132
83 6 0 0 -7 -12 -17z m-2943 -6 c-24 -21 -396 -246 -409 -246 -31 0 6 26 197
137 197 115 245 140 212 109z m49 -90 c-25 -23 -373 -226 -382 -223 -6 2 26
26 73 53 46 27 132 77 190 111 88 51 137 76 119 59z m2057 -134 c-2 -4 -25
-22 -49 -40 -40 -28 -44 -30 -40 -11 4 12 23 29 47 39 49 22 48 22 42 12z
m-1828 -64 c-3 -7 -80 -60 -172 -117 -149 -92 -169 -102 -182 -89 -14 13 4 26
158 116 170 99 204 115 196 90z m2387 -78 c-19 -31 -436 -270 -471 -270 -7 0
463 277 474 279 2 1 1 -3 -3 -9z m-2785 -35 c0 -2 -13 -11 -30 -20 -38 -19
-40 -11 -2 9 31 17 32 18 32 11z m355 -38 c-70 -47 -196 -119 -201 -115 -5 6
193 126 211 127 5 1 1 -5 -10 -12z m193 -29 c-2 -4 -59 -44 -128 -87 -109 -69
-127 -77 -147 -68 -13 6 -22 15 -21 19 2 5 64 44 138 87 97 56 139 75 148 68
7 -6 11 -14 10 -19z m806 2 c-5 -4 -144 -96 -309 -203 l-299 -195 -37 21 c-21
12 -36 23 -34 25 2 2 149 88 327 191 258 150 327 186 342 178 10 -5 14 -12 10
-17z m-672 -71 c18 -10 8 -19 -103 -91 -123 -80 -139 -85 -179 -58 -13 9 -13
11 0 20 95 59 238 139 248 139 7 1 23 -4 34 -10z m878 -29 c13 -9 13 -10 0
-10 -8 0 -22 5 -30 10 -13 9 -13 10 0 10 8 0 22 -5 30 -10z m224 -12 c-24 -12
-49 -18 -59 -14 -24 9 -15 15 36 25 65 13 68 12 23 -11z m-904 -5 c-1 -5 -51
-39 -112 -78 -193 -121 -180 -115 -206 -101 -21 11 -14 17 113 90 74 43 135
82 135 87 0 5 16 9 35 9 19 0 35 -3 35 -7z m525 -102 c-26 -23 -457 -291 -470
-291 -41 0 -1 28 223 158 238 136 267 152 247 133z m30 -110 c-6 -6 -95 -64
-200 -130 -136 -87 -192 -118 -200 -110 -6 8 -7 13 0 16 6 2 98 55 205 118
193 113 213 124 195 106z m-55 -155 c0 -10 -211 -137 -221 -134 -7 2 39 34
102 71 120 70 119 69 119 63z m104 -56 c-22 -22 -169 -110 -184 -110 -8 0 30
27 85 60 102 60 117 68 99 50z"/>
<path d="M2075 3183 c-44 -6 -86 -24 -82 -36 2 -6 18 -15 36 -20 67 -17 121
-76 121 -130 0 -22 6 -27 34 -32 64 -12 102 27 85 88 -23 85 -106 141 -194
130z"/>
<path d="M3504 2284 c-18 -14 -18 -15 4 -4 12 6 22 13 22 15 0 8 -5 6 -26 -11z"/>
<path d="M3162 2083 c-78 -38 -156 -145 -150 -206 3 -30 6 -32 46 -35 55 -4
67 7 86 73 18 59 25 67 81 83 41 12 85 44 85 63 0 13 -62 39 -92 39 -13 0 -38
-8 -56 -17z"/>
</g>
</svg>
